<svg id="Layer_1" data-name="Layer 1" xmlns="http://www.w3.org/2000/svg" viewBox="0 0 180 252"><defs><style>.cls-1{fill:none;stroke:#9f95c8;stroke-miterlimit:10;stroke-width:2px;}</style></defs><title>infood</title><path class="cls-1" d="M114.85,121.69a21.65,21.65,0,0,0,2.51.58,55.6,55.6,0,0,0,5.55.86c.84.14,1.69.28,2.53.38a29.27,29.27,0,0,0,3.82.21c2.79,0,5.39-1.78,8.12-1.76,1.19,0,2.35.36,3.59.29a37.3,37.3,0,0,0,4.62-.65.4.4,0,0,0,.29-.15c.14-.24-.25-.42-.53-.42q-3,0-6-.29a29.88,29.88,0,0,1-4.36-.27c-.34-.08-.59-.32-.92-.41A.25.25,0,0,1,134,120a.19.19,0,0,1,0-.15c.14-.9,1.48-.84,2.16-1,2-.32,4-.55,5.94-.76a11,11,0,0,1,2.13-.17c.34,0,1.84.76,2.11.47a.69.69,0,0,0-.18-1c-1.38-1-5.07,0-6.67,0a29.09,29.09,0,0,1-4.16-.06,8.14,8.14,0,0,1-1.28-.34c-.52-.15-1.16-.22-1.64-.41a.45.45,0,0,1-.31-.44c0-.3.94-.29,1.2-.39.53-.2,1-.49,1.57-.7a27.24,27.24,0,0,1,3.05-1c1.12-.31,2.35-.39,3.44-.79.47-.17,2.2.13,2.35-.36.26-.83-1.35-.64-1.72-.59l-10.61,1.19a21.55,21.55,0,0,0-3.49.58,10.87,10.87,0,0,0-5.85,4.13c-.77,1.08-1.39,2.36-2.54,3-1.64.93-3.88.39-5.67.36a50.7,50.7,0,0,0-5.37-.33,19.65,19.65,0,0,0-10.08,4.24c-4.23,3.26-7.47,7.61-11.19,11.45-7.84,8.1-19.47,17.34-31.23,17.68C47,154.94,32.85,147.8,33,137.45a14.49,14.49,0,0,1,4.8-10.14,10.21,10.21,0,0,1,1.61-1.26c3.26-2,9.64-1.54,13.35-1.48a48.45,48.45,0,0,1,8,.58c11.39,2.11,18.37,11.48,26.47,18.8a21.7,21.7,0,0,0,6.58,4.42c3.12,1.2,6.57,1.15,9.92,1.09l14.3-.28c.87-.53.85-.29,1.67.31,2.76,2,3.61,5.38,6.82,7.21,4.79,2.72,11.48,3.85,16.77,2.05a14.94,14.94,0,0,0,4.44-2.41,8,8,0,0,0,3-4.25c.72-3.14-1.46-6.21-3.91-8.3a10.7,10.7,0,0,0-3.5-2.16,13.45,13.45,0,0,0-3.75-.5c-4.56-.17-9.55-.21-13.12,2.63-1.45,1.16-2.76,2.51-4.23,3.63a8.78,8.78,0,0,1-2.66,1.38,17.39,17.39,0,0,1-3,.43"/></svg>